<mxfile host="65bd71144e">
    <diagram id="qkY7__N8tfTs5r9OMpkE" name="Page-1">
        <mxGraphModel dx="1461" dy="587" grid="1" gridSize="10" guides="1" tooltips="1" connect="1" arrows="1" fold="1" page="1" pageScale="1" pageWidth="850" pageHeight="1100" math="0" shadow="0">
            <root>
                <mxCell id="0"/>
                <mxCell id="1" parent="0"/>
                <mxCell id="8" value="" style="edgeStyle=none;html=1;" parent="1" source="2" target="6" edge="1">
                    <mxGeometry relative="1" as="geometry"/>
                </mxCell>
                <mxCell id="2" value="inicio" style="strokeWidth=2;html=1;shape=mxgraph.flowchart.start_1;whiteSpace=wrap;" parent="1" vertex="1">
                    <mxGeometry x="142" y="10" width="100" height="60" as="geometry"/>
                </mxCell>
                <mxCell id="222" style="edgeStyle=orthogonalEdgeStyle;html=1;exitX=0.5;exitY=1;exitDx=0;exitDy=0;exitPerimeter=0;entryX=0.5;entryY=0;entryDx=0;entryDy=0;entryPerimeter=0;" edge="1" parent="1" source="3" target="12">
                    <mxGeometry relative="1" as="geometry"/>
                </mxCell>
                <mxCell id="3" value="&lt;div style=&quot;color: rgb(204, 204, 204); background-color: rgb(31, 31, 31); font-family: &amp;quot;Cascadia Code&amp;quot;, Consolas, &amp;quot;Courier New&amp;quot;, monospace; font-size: 14px; line-height: 19px;&quot;&gt;opcao&lt;/div&gt;" style="strokeWidth=2;html=1;shape=mxgraph.flowchart.decision;whiteSpace=wrap;" parent="1" vertex="1">
                    <mxGeometry x="142" y="410" width="100" height="100" as="geometry"/>
                </mxCell>
                <mxCell id="220" style="edgeStyle=orthogonalEdgeStyle;html=1;exitX=0.5;exitY=1;exitDx=0;exitDy=0;exitPerimeter=0;entryX=0.5;entryY=0;entryDx=0;entryDy=0;entryPerimeter=0;" edge="1" parent="1" source="6" target="184">
                    <mxGeometry relative="1" as="geometry"/>
                </mxCell>
                <mxCell id="6" value="&lt;div style=&quot;&quot;&gt;MENU:&lt;/div&gt;&lt;div style=&quot;&quot;&gt;1- Preencher as notas&lt;/div&gt;&lt;div style=&quot;&quot;&gt;2 - Preencher automaticamente as notas&lt;/div&gt;&lt;div style=&quot;&quot;&gt;3 - Calcular as médias&lt;/div&gt;&lt;div style=&quot;&quot;&gt;4 - Exibe as notas e médias&lt;/div&gt;&lt;div style=&quot;&quot;&gt;5 - Calcular a média da sala e verificar quantos estão acima da média&lt;/div&gt;&lt;div style=&quot;&quot;&gt;6 - Exibir quantos alunos tiraram ao menos um Zero&lt;/div&gt;&lt;div style=&quot;&quot;&gt;0 - Sair&lt;/div&gt;&lt;div style=&quot;&quot;&gt;Escolha uma opção:&lt;/div&gt;" style="strokeWidth=2;html=1;shape=mxgraph.flowchart.display;whiteSpace=wrap;align=center;" parent="1" vertex="1">
                    <mxGeometry x="10" y="100" width="365" height="190" as="geometry"/>
                </mxCell>
                <mxCell id="43" style="edgeStyle=orthogonalEdgeStyle;html=1;exitX=0.5;exitY=1;exitDx=0;exitDy=0;exitPerimeter=0;entryX=0.5;entryY=0;entryDx=0;entryDy=0;entryPerimeter=0;fontSize=11;" parent="1" source="12" target="17" edge="1">
                    <mxGeometry relative="1" as="geometry"/>
                </mxCell>
                <mxCell id="12" value="case 1:" style="strokeWidth=2;html=1;shape=mxgraph.flowchart.decision;whiteSpace=wrap;" parent="1" vertex="1">
                    <mxGeometry x="142" y="530" width="100" height="100" as="geometry"/>
                </mxCell>
                <mxCell id="82" value="" style="edgeStyle=orthogonalEdgeStyle;html=1;fontSize=11;exitX=1;exitY=0.5;exitDx=0;exitDy=0;exitPerimeter=0;" parent="1" source="15" target="81" edge="1">
                    <mxGeometry relative="1" as="geometry">
                        <mxPoint x="260" y="2730" as="sourcePoint"/>
                    </mxGeometry>
                </mxCell>
                <mxCell id="98" value="" style="edgeStyle=orthogonalEdgeStyle;html=1;fontSize=11;" parent="1" source="14" target="95" edge="1">
                    <mxGeometry relative="1" as="geometry"/>
                </mxCell>
                <mxCell id="119" style="edgeStyle=orthogonalEdgeStyle;html=1;entryX=0.5;entryY=0;entryDx=0;entryDy=0;entryPerimeter=0;fontSize=11;" parent="1" source="14" target="15" edge="1">
                    <mxGeometry relative="1" as="geometry"/>
                </mxCell>
                <mxCell id="14" value="case 4:" style="strokeWidth=2;html=1;shape=mxgraph.flowchart.decision;whiteSpace=wrap;" parent="1" vertex="1">
                    <mxGeometry x="142" y="2070" width="100" height="100" as="geometry"/>
                </mxCell>
                <mxCell id="120" style="edgeStyle=orthogonalEdgeStyle;html=1;entryX=0.5;entryY=0;entryDx=0;entryDy=0;entryPerimeter=0;fontSize=11;" parent="1" source="15" target="18" edge="1">
                    <mxGeometry relative="1" as="geometry"/>
                </mxCell>
                <mxCell id="15" value="case 5:" style="strokeWidth=2;html=1;shape=mxgraph.flowchart.decision;whiteSpace=wrap;" parent="1" vertex="1">
                    <mxGeometry x="143" y="2680" width="100" height="100" as="geometry"/>
                </mxCell>
                <mxCell id="93" style="edgeStyle=orthogonalEdgeStyle;html=1;exitX=0.5;exitY=1;exitDx=0;exitDy=0;exitPerimeter=0;entryX=0.5;entryY=0;entryDx=0;entryDy=0;entryPerimeter=0;fontSize=11;" parent="1" source="16" target="14" edge="1">
                    <mxGeometry relative="1" as="geometry"/>
                </mxCell>
                <mxCell id="250" style="edgeStyle=orthogonalEdgeStyle;html=1;exitX=1;exitY=0.5;exitDx=0;exitDy=0;exitPerimeter=0;entryX=0.5;entryY=0;entryDx=0;entryDy=0;" edge="1" parent="1" source="16" target="193">
                    <mxGeometry relative="1" as="geometry">
                        <Array as="points">
                            <mxPoint x="270" y="1410"/>
                            <mxPoint x="270" y="1380"/>
                            <mxPoint x="356" y="1380"/>
                        </Array>
                    </mxGeometry>
                </mxCell>
                <mxCell id="16" value="case 3:" style="strokeWidth=2;html=1;shape=mxgraph.flowchart.decision;whiteSpace=wrap;" parent="1" vertex="1">
                    <mxGeometry x="143" y="1360" width="100" height="100" as="geometry"/>
                </mxCell>
                <mxCell id="33" value="" style="edgeStyle=none;html=1;fontSize=11;" parent="1" source="17" target="32" edge="1">
                    <mxGeometry relative="1" as="geometry"/>
                </mxCell>
                <mxCell id="77" style="edgeStyle=orthogonalEdgeStyle;html=1;entryX=0.5;entryY=0;entryDx=0;entryDy=0;entryPerimeter=0;fontSize=11;" parent="1" source="17" target="16" edge="1">
                    <mxGeometry relative="1" as="geometry"/>
                </mxCell>
                <mxCell id="17" value="case 2:" style="strokeWidth=2;html=1;shape=mxgraph.flowchart.decision;whiteSpace=wrap;" parent="1" vertex="1">
                    <mxGeometry x="142" y="862.5" width="100" height="100" as="geometry"/>
                </mxCell>
                <mxCell id="122" value="" style="edgeStyle=orthogonalEdgeStyle;html=1;fontSize=11;" parent="1" source="18" target="121" edge="1">
                    <mxGeometry relative="1" as="geometry"/>
                </mxCell>
                <mxCell id="140" style="edgeStyle=orthogonalEdgeStyle;html=1;exitX=0.5;exitY=1;exitDx=0;exitDy=0;exitPerimeter=0;fontSize=11;" parent="1" source="18" target="139" edge="1">
                    <mxGeometry relative="1" as="geometry"/>
                </mxCell>
                <mxCell id="18" value="case 6:" style="strokeWidth=2;html=1;shape=mxgraph.flowchart.decision;whiteSpace=wrap;" parent="1" vertex="1">
                    <mxGeometry x="142" y="3160" width="100" height="100" as="geometry"/>
                </mxCell>
                <mxCell id="239" style="edgeStyle=orthogonalEdgeStyle;html=1;exitX=0.5;exitY=1;exitDx=0;exitDy=0;exitPerimeter=0;entryX=0.5;entryY=0;entryDx=0;entryDy=0;" edge="1" parent="1" source="20" target="191">
                    <mxGeometry relative="1" as="geometry"/>
                </mxCell>
                <mxCell id="20" value="Digite as notas do aluno i + 1 (prova 1, prova 2, prova 3)" style="strokeWidth=2;html=1;shape=mxgraph.flowchart.display;whiteSpace=wrap;" parent="1" vertex="1">
                    <mxGeometry x="349.5" y="560" width="125" height="80" as="geometry"/>
                </mxCell>
                <mxCell id="26" value="" style="edgeStyle=none;html=1;exitX=1;exitY=0.5;exitDx=0;exitDy=0;entryX=0;entryY=0.5;entryDx=0;entryDy=0;" parent="1" source="190" target="157" edge="1">
                    <mxGeometry relative="1" as="geometry">
                        <mxPoint x="472" y="560" as="sourcePoint"/>
                        <mxPoint x="500" y="560" as="targetPoint"/>
                    </mxGeometry>
                </mxCell>
                <mxCell id="40" style="edgeStyle=orthogonalEdgeStyle;html=1;exitX=1;exitY=0.5;exitDx=0;exitDy=0;entryX=0;entryY=0.5;entryDx=0;entryDy=0;fontSize=11;" parent="1" source="191" target="190" edge="1">
                    <mxGeometry relative="1" as="geometry">
                        <Array as="points">
                            <mxPoint x="509" y="710"/>
                            <mxPoint x="509" y="860"/>
                            <mxPoint x="299" y="860"/>
                            <mxPoint x="299" y="480"/>
                        </Array>
                        <mxPoint x="484.5" y="795" as="sourcePoint"/>
                        <mxPoint x="347" y="560" as="targetPoint"/>
                    </mxGeometry>
                </mxCell>
                <mxCell id="37" value="" style="edgeStyle=none;html=1;fontSize=11;entryX=0.5;entryY=0;entryDx=0;entryDy=0;" parent="1" source="32" target="188" edge="1">
                    <mxGeometry relative="1" as="geometry">
                        <mxPoint x="359.5" y="980" as="targetPoint"/>
                    </mxGeometry>
                </mxCell>
                <mxCell id="32" value="notasExemplo[5][3] ==&lt;br&gt;{8.0, 7.0, 9.0},{6.0, 7.5, 8.5},{7.0, 6.5, 7.5},{95, 8.5, 9.0},{5.5, 6.0, 7.0};" style="whiteSpace=wrap;html=1;strokeWidth=2;" parent="1" vertex="1">
                    <mxGeometry x="279.5" y="882.5" width="160" height="70" as="geometry"/>
                </mxCell>
                <mxCell id="44" style="edgeStyle=orthogonalEdgeStyle;html=1;exitX=0.5;exitY=1;exitDx=0;exitDy=0;entryX=0.5;entryY=0;entryDx=0;entryDy=0;fontSize=11;" parent="1" source="188" target="189" edge="1">
                    <mxGeometry relative="1" as="geometry">
                        <mxPoint x="359.5" y="1085" as="sourcePoint"/>
                        <mxPoint x="359.5" y="1110" as="targetPoint"/>
                    </mxGeometry>
                </mxCell>
                <mxCell id="156" style="edgeStyle=orthogonalEdgeStyle;html=1;entryX=0;entryY=0.5;entryDx=0;entryDy=0;fontSize=11;exitX=1;exitY=0.5;exitDx=0;exitDy=0;" parent="1" source="188" target="155" edge="1">
                    <mxGeometry relative="1" as="geometry">
                        <mxPoint x="429.5" y="1032.5" as="sourcePoint"/>
                    </mxGeometry>
                </mxCell>
                <mxCell id="46" value="" style="edgeStyle=orthogonalEdgeStyle;html=1;fontSize=11;exitX=0.5;exitY=1;exitDx=0;exitDy=0;" parent="1" source="189" target="45" edge="1">
                    <mxGeometry relative="1" as="geometry">
                        <mxPoint x="359.5" y="1220" as="sourcePoint"/>
                    </mxGeometry>
                </mxCell>
                <mxCell id="49" style="edgeStyle=orthogonalEdgeStyle;html=1;exitX=1;exitY=0.5;exitDx=0;exitDy=0;entryX=0;entryY=0.5;entryDx=0;entryDy=0;fontSize=11;" parent="1" source="189" target="188" edge="1">
                    <mxGeometry relative="1" as="geometry">
                        <Array as="points">
                            <mxPoint x="445" y="1150"/>
                            <mxPoint x="445" y="1340"/>
                            <mxPoint x="250" y="1340"/>
                            <mxPoint x="250" y="1033"/>
                        </Array>
                        <mxPoint x="434.5" y="1165" as="sourcePoint"/>
                        <mxPoint x="289.5" y="1032.5" as="targetPoint"/>
                    </mxGeometry>
                </mxCell>
                <mxCell id="48" style="edgeStyle=orthogonalEdgeStyle;html=1;exitX=0;exitY=0.5;exitDx=0;exitDy=0;entryX=0;entryY=0.5;entryDx=0;entryDy=0;fontSize=11;" parent="1" source="45" target="189" edge="1">
                    <mxGeometry relative="1" as="geometry">
                        <mxPoint x="284.5" y="1165" as="targetPoint"/>
                        <Array as="points">
                            <mxPoint x="270" y="1290"/>
                            <mxPoint x="270" y="1150"/>
                        </Array>
                    </mxGeometry>
                </mxCell>
                <mxCell id="45" value="notas[i][j] == notasExemplo[i][j]" style="whiteSpace=wrap;html=1;strokeWidth=2;" parent="1" vertex="1">
                    <mxGeometry x="299.5" y="1260" width="120" height="60" as="geometry"/>
                </mxCell>
                <mxCell id="55" value="" style="edgeStyle=orthogonalEdgeStyle;html=1;fontSize=11;exitX=0.5;exitY=1;exitDx=0;exitDy=0;" parent="1" source="193" target="54" edge="1">
                    <mxGeometry relative="1" as="geometry">
                        <mxPoint x="355.5" y="1500" as="sourcePoint"/>
                    </mxGeometry>
                </mxCell>
                <mxCell id="69" value="" style="edgeStyle=orthogonalEdgeStyle;html=1;fontSize=11;exitX=1;exitY=0.5;exitDx=0;exitDy=0;" parent="1" source="193" target="68" edge="1">
                    <mxGeometry relative="1" as="geometry">
                        <mxPoint x="430.5" y="1690" as="sourcePoint"/>
                    </mxGeometry>
                </mxCell>
                <mxCell id="196" value="" style="edgeStyle=orthogonalEdgeStyle;html=1;" edge="1" parent="1" source="54" target="194">
                    <mxGeometry relative="1" as="geometry"/>
                </mxCell>
                <mxCell id="54" value="menorNota = notas[i][0] soma = 0" style="whiteSpace=wrap;html=1;strokeWidth=2;fontSize=11;" parent="1" vertex="1">
                    <mxGeometry x="295.5" y="1530" width="120" height="60" as="geometry"/>
                </mxCell>
                <mxCell id="58" value="" style="edgeStyle=orthogonalEdgeStyle;html=1;fontSize=11;" parent="1" source="56" target="57" edge="1">
                    <mxGeometry relative="1" as="geometry"/>
                </mxCell>
                <mxCell id="258" style="edgeStyle=orthogonalEdgeStyle;html=1;exitX=1;exitY=0.5;exitDx=0;exitDy=0;exitPerimeter=0;entryX=0.5;entryY=0;entryDx=0;entryDy=0;" edge="1" parent="1" source="56" target="61">
                    <mxGeometry relative="1" as="geometry">
                        <Array as="points">
                            <mxPoint x="450" y="1800"/>
                            <mxPoint x="450" y="1950"/>
                            <mxPoint x="375" y="1950"/>
                        </Array>
                    </mxGeometry>
                </mxCell>
                <mxCell id="56" value="notas[i][j] &lt;br&gt;&amp;lt; menorNotaa" style="strokeWidth=2;html=1;shape=mxgraph.flowchart.decision;whiteSpace=wrap;fontSize=11;" parent="1" vertex="1">
                    <mxGeometry x="327.5" y="1750" width="100" height="100" as="geometry"/>
                </mxCell>
                <mxCell id="257" style="edgeStyle=orthogonalEdgeStyle;html=1;exitX=0;exitY=0.5;exitDx=0;exitDy=0;entryX=0;entryY=0.5;entryDx=0;entryDy=0;entryPerimeter=0;" edge="1" parent="1" source="57" target="56">
                    <mxGeometry relative="1" as="geometry">
                        <Array as="points">
                            <mxPoint x="290" y="1907"/>
                            <mxPoint x="290" y="1800"/>
                        </Array>
                    </mxGeometry>
                </mxCell>
                <mxCell id="57" value="menorNota = notas[i][j]" style="whiteSpace=wrap;html=1;fontSize=11;strokeWidth=2;" parent="1" vertex="1">
                    <mxGeometry x="317" y="1877" width="120" height="60" as="geometry"/>
                </mxCell>
                <mxCell id="63" style="edgeStyle=orthogonalEdgeStyle;html=1;exitX=0;exitY=0.5;exitDx=0;exitDy=0;entryX=0;entryY=0.5;entryDx=0;entryDy=0;fontSize=11;" parent="1" source="61" target="194" edge="1">
                    <mxGeometry relative="1" as="geometry">
                        <Array as="points">
                            <mxPoint x="270" y="2010"/>
                            <mxPoint x="270" y="1690"/>
                        </Array>
                        <mxPoint x="280.5" y="1690" as="targetPoint"/>
                    </mxGeometry>
                </mxCell>
                <mxCell id="249" style="edgeStyle=orthogonalEdgeStyle;html=1;exitX=1;exitY=0.5;exitDx=0;exitDy=0;entryX=0;entryY=0.5;entryDx=0;entryDy=0;" edge="1" parent="1" source="61" target="193">
                    <mxGeometry relative="1" as="geometry">
                        <Array as="points">
                            <mxPoint x="460" y="2010"/>
                            <mxPoint x="460" y="2060"/>
                            <mxPoint x="240" y="2060"/>
                            <mxPoint x="240" y="1440"/>
                        </Array>
                    </mxGeometry>
                </mxCell>
                <mxCell id="61" value="soma += notas[i][j]" style="whiteSpace=wrap;html=1;fontSize=11;strokeWidth=2;" parent="1" vertex="1">
                    <mxGeometry x="312.75" y="1980" width="124.5" height="60" as="geometry"/>
                </mxCell>
                <mxCell id="74" style="edgeStyle=orthogonalEdgeStyle;html=1;entryX=0;entryY=0.5;entryDx=0;entryDy=0;fontSize=11;exitX=0;exitY=0.5;exitDx=0;exitDy=0;" parent="1" source="67" target="198" edge="1">
                    <mxGeometry relative="1" as="geometry">
                        <Array as="points">
                            <mxPoint x="431" y="1670"/>
                            <mxPoint x="431" y="1560"/>
                        </Array>
                        <mxPoint x="451" y="1570" as="targetPoint"/>
                    </mxGeometry>
                </mxCell>
                <mxCell id="67" value="soma += notas[i][j]" style="whiteSpace=wrap;html=1;fontSize=11;strokeWidth=2;" parent="1" vertex="1">
                    <mxGeometry x="466" y="1640" width="120" height="60" as="geometry"/>
                </mxCell>
                <mxCell id="199" value="" style="edgeStyle=orthogonalEdgeStyle;html=1;" edge="1" parent="1" source="68" target="198">
                    <mxGeometry relative="1" as="geometry"/>
                </mxCell>
                <mxCell id="68" value="menorNota = notas[i][0] soma = 0" style="whiteSpace=wrap;html=1;strokeWidth=2;fontSize=11;" parent="1" vertex="1">
                    <mxGeometry x="465" y="1410" width="120" height="60" as="geometry"/>
                </mxCell>
                <mxCell id="154" value="" style="edgeStyle=orthogonalEdgeStyle;html=1;fontSize=11;" parent="1" source="72" target="152" edge="1">
                    <mxGeometry relative="1" as="geometry"/>
                </mxCell>
                <mxCell id="72" value="mediaSala = soma / NUM_ALUNOS" style="whiteSpace=wrap;html=1;fontSize=11;strokeWidth=2;" parent="1" vertex="1">
                    <mxGeometry x="641" y="1530" width="120" height="60" as="geometry"/>
                </mxCell>
                <mxCell id="213" value="" style="edgeStyle=orthogonalEdgeStyle;html=1;" edge="1" parent="1" source="81" target="210">
                    <mxGeometry relative="1" as="geometry"/>
                </mxCell>
                <mxCell id="81" value="contador == 0" style="whiteSpace=wrap;html=1;strokeWidth=2;" parent="1" vertex="1">
                    <mxGeometry x="330" y="2700" width="120" height="60" as="geometry"/>
                </mxCell>
                <mxCell id="92" value="" style="edgeStyle=orthogonalEdgeStyle;html=1;fontSize=11;" parent="1" target="91" edge="1">
                    <mxGeometry relative="1" as="geometry">
                        <mxPoint x="452.5" y="2850" as="sourcePoint"/>
                    </mxGeometry>
                </mxCell>
                <mxCell id="87" value="" style="edgeStyle=orthogonalEdgeStyle;html=1;fontSize=11;" parent="1" source="85" target="86" edge="1">
                    <mxGeometry relative="1" as="geometry"/>
                </mxCell>
                <mxCell id="277" style="edgeStyle=orthogonalEdgeStyle;html=1;exitX=1;exitY=0.5;exitDx=0;exitDy=0;exitPerimeter=0;entryX=1;entryY=0.5;entryDx=0;entryDy=0;entryPerimeter=0;" edge="1" parent="1" source="85" target="278">
                    <mxGeometry relative="1" as="geometry">
                        <mxPoint x="520" y="3130" as="targetPoint"/>
                        <Array as="points">
                            <mxPoint x="460" y="2990"/>
                            <mxPoint x="460" y="3155"/>
                        </Array>
                    </mxGeometry>
                </mxCell>
                <mxCell id="85" value="medias[i] &amp;gt; mediaSala" style="strokeWidth=2;html=1;shape=mxgraph.flowchart.decision;whiteSpace=wrap;fontSize=11;" parent="1" vertex="1">
                    <mxGeometry x="340" y="2940" width="100" height="100" as="geometry"/>
                </mxCell>
                <mxCell id="86" value="contador = contador + 1" style="whiteSpace=wrap;html=1;fontSize=11;strokeWidth=2;" parent="1" vertex="1">
                    <mxGeometry x="330" y="3068" width="120" height="60" as="geometry"/>
                </mxCell>
                <mxCell id="149" value="" style="edgeStyle=orthogonalEdgeStyle;html=1;fontSize=11;" parent="1" source="91" target="148" edge="1">
                    <mxGeometry relative="1" as="geometry"/>
                </mxCell>
                <mxCell id="91" value="Número de alunos acima da média da sala: , contador" style="strokeWidth=2;html=1;shape=mxgraph.flowchart.display;whiteSpace=wrap;fontSize=11;" parent="1" vertex="1">
                    <mxGeometry x="480" y="2810" width="170" height="80" as="geometry"/>
                </mxCell>
                <mxCell id="97" value="" style="edgeStyle=orthogonalEdgeStyle;html=1;fontSize=11;" parent="1" source="95" target="96" edge="1">
                    <mxGeometry relative="1" as="geometry"/>
                </mxCell>
                <mxCell id="103" value="" style="edgeStyle=orthogonalEdgeStyle;html=1;fontSize=11;" parent="1" source="95" target="100" edge="1">
                    <mxGeometry relative="1" as="geometry"/>
                </mxCell>
                <mxCell id="95" value="verificador == 0" style="strokeWidth=2;html=1;shape=mxgraph.flowchart.decision;whiteSpace=wrap;fontSize=11;" parent="1" vertex="1">
                    <mxGeometry x="268" y="2070" width="100" height="100" as="geometry"/>
                </mxCell>
                <mxCell id="96" value="Execute a primeira ou a segunda opção primeiro" style="strokeWidth=2;html=1;shape=mxgraph.flowchart.display;whiteSpace=wrap;fontSize=11;" parent="1" vertex="1">
                    <mxGeometry x="250.5" y="2230" width="135" height="70" as="geometry"/>
                </mxCell>
                <mxCell id="261" style="edgeStyle=orthogonalEdgeStyle;html=1;exitX=0;exitY=0.5;exitDx=0;exitDy=0;exitPerimeter=0;entryX=0;entryY=0.5;entryDx=0;entryDy=0;" edge="1" parent="1" source="99" target="204">
                    <mxGeometry relative="1" as="geometry">
                        <Array as="points">
                            <mxPoint x="410" y="2540"/>
                            <mxPoint x="410" y="2440"/>
                        </Array>
                    </mxGeometry>
                </mxCell>
                <mxCell id="99" value="notas[i][j]" style="strokeWidth=2;html=1;shape=mxgraph.flowchart.display;whiteSpace=wrap;fontSize=11;" parent="1" vertex="1">
                    <mxGeometry x="442" y="2510" width="100" height="60" as="geometry"/>
                </mxCell>
                <mxCell id="208" value="" style="edgeStyle=orthogonalEdgeStyle;html=1;" edge="1" parent="1" source="100" target="203">
                    <mxGeometry relative="1" as="geometry"/>
                </mxCell>
                <mxCell id="100" value="Notas dos alunos:" style="strokeWidth=2;html=1;shape=mxgraph.flowchart.display;whiteSpace=wrap;fontSize=11;" parent="1" vertex="1">
                    <mxGeometry x="439.5" y="2090" width="100" height="60" as="geometry"/>
                </mxCell>
                <mxCell id="265" style="edgeStyle=orthogonalEdgeStyle;html=1;exitX=0.5;exitY=1;exitDx=0;exitDy=0;exitPerimeter=0;entryX=0.5;entryY=0;entryDx=0;entryDy=0;" edge="1" parent="1" source="102" target="204">
                    <mxGeometry relative="1" as="geometry"/>
                </mxCell>
                <mxCell id="102" value="Aluno :, i + 1&amp;nbsp;&amp;nbsp;" style="strokeWidth=2;html=1;shape=mxgraph.flowchart.display;whiteSpace=wrap;fontSize=11;" parent="1" vertex="1">
                    <mxGeometry x="441" y="2320" width="100" height="60" as="geometry"/>
                </mxCell>
                <mxCell id="115" value="V" style="text;html=1;align=center;verticalAlign=middle;resizable=0;points=[];autosize=1;strokeColor=none;fillColor=none;fontSize=11;" parent="1" vertex="1">
                    <mxGeometry x="315.5" y="2165" width="30" height="30" as="geometry"/>
                </mxCell>
                <mxCell id="118" value="F" style="text;html=1;align=center;verticalAlign=middle;resizable=0;points=[];autosize=1;strokeColor=none;fillColor=none;fontSize=11;" parent="1" vertex="1">
                    <mxGeometry x="362.5" y="2090" width="30" height="30" as="geometry"/>
                </mxCell>
                <mxCell id="218" value="" style="edgeStyle=orthogonalEdgeStyle;html=1;" edge="1" parent="1" source="121" target="215">
                    <mxGeometry relative="1" as="geometry"/>
                </mxCell>
                <mxCell id="121" value="contador = 0" style="whiteSpace=wrap;html=1;strokeWidth=2;" parent="1" vertex="1">
                    <mxGeometry x="312" y="3180" width="120" height="60" as="geometry"/>
                </mxCell>
                <mxCell id="136" style="edgeStyle=orthogonalEdgeStyle;html=1;exitX=1;exitY=0.5;exitDx=0;exitDy=0;entryX=0;entryY=0.5;entryDx=0;entryDy=0;fontSize=11;" parent="1" source="211" target="215" edge="1">
                    <mxGeometry relative="1" as="geometry">
                        <Array as="points">
                            <mxPoint x="470" y="3460"/>
                            <mxPoint x="470" y="3850"/>
                            <mxPoint x="260" y="3850"/>
                            <mxPoint x="260" y="3320"/>
                        </Array>
                        <mxPoint x="447" y="3460" as="sourcePoint"/>
                        <mxPoint x="299.75" y="3320" as="targetPoint"/>
                    </mxGeometry>
                </mxCell>
                <mxCell id="132" value="" style="edgeStyle=orthogonalEdgeStyle;html=1;fontSize=11;" parent="1" source="129" target="131" edge="1">
                    <mxGeometry relative="1" as="geometry"/>
                </mxCell>
                <mxCell id="135" style="edgeStyle=orthogonalEdgeStyle;html=1;entryX=0;entryY=0.5;entryDx=0;entryDy=0;fontSize=11;" parent="1" source="129" target="211" edge="1">
                    <mxGeometry relative="1" as="geometry">
                        <Array as="points">
                            <mxPoint x="280" y="3600"/>
                            <mxPoint x="280" y="3460"/>
                        </Array>
                        <mxPoint x="297" y="3460" as="targetPoint"/>
                    </mxGeometry>
                </mxCell>
                <mxCell id="129" value="notas[i][j] = 0" style="strokeWidth=2;html=1;shape=mxgraph.flowchart.decision;whiteSpace=wrap;fontSize=11;" parent="1" vertex="1">
                    <mxGeometry x="322" y="3550" width="100" height="100" as="geometry"/>
                </mxCell>
                <mxCell id="134" value="" style="edgeStyle=orthogonalEdgeStyle;html=1;fontSize=11;" parent="1" source="131" target="133" edge="1">
                    <mxGeometry relative="1" as="geometry"/>
                </mxCell>
                <mxCell id="131" value="contador + 1" style="whiteSpace=wrap;html=1;fontSize=11;strokeWidth=2;" parent="1" vertex="1">
                    <mxGeometry x="312" y="3680" width="120" height="60" as="geometry"/>
                </mxCell>
                <mxCell id="133" value="break" style="whiteSpace=wrap;html=1;fontSize=11;strokeWidth=2;" parent="1" vertex="1">
                    <mxGeometry x="312" y="3770" width="120" height="60" as="geometry"/>
                </mxCell>
                <mxCell id="176" style="edgeStyle=orthogonalEdgeStyle;html=1;exitX=1;exitY=0.5;exitDx=0;exitDy=0;exitPerimeter=0;entryX=0;entryY=0.5;entryDx=0;entryDy=0;fontSize=11;" parent="1" source="137" target="175" edge="1">
                    <mxGeometry relative="1" as="geometry"/>
                </mxCell>
                <mxCell id="137" value="Número de alunos com pelo menos uma nota zero:, contador" style="strokeWidth=2;html=1;shape=mxgraph.flowchart.display;whiteSpace=wrap;fontSize=11;" parent="1" vertex="1">
                    <mxGeometry x="465" y="3280" width="200" height="80" as="geometry"/>
                </mxCell>
                <mxCell id="142" value="" style="edgeStyle=orthogonalEdgeStyle;html=1;fontSize=11;" parent="1" source="139" target="141" edge="1">
                    <mxGeometry relative="1" as="geometry"/>
                </mxCell>
                <mxCell id="139" value="defalt" style="strokeWidth=2;html=1;shape=mxgraph.flowchart.decision;whiteSpace=wrap;fontSize=11;" parent="1" vertex="1">
                    <mxGeometry x="143" y="3860" width="100" height="100" as="geometry"/>
                </mxCell>
                <mxCell id="145" style="edgeStyle=orthogonalEdgeStyle;html=1;exitX=1;exitY=0.5;exitDx=0;exitDy=0;exitPerimeter=0;fontSize=11;entryX=0;entryY=0.5;entryDx=0;entryDy=0;entryPerimeter=0;" parent="1" source="141" edge="1">
                    <mxGeometry relative="1" as="geometry">
                        <mxPoint x="840" y="3910" as="targetPoint"/>
                    </mxGeometry>
                </mxCell>
                <mxCell id="141" value="Opção inválida. Tente novamente." style="strokeWidth=2;html=1;shape=mxgraph.flowchart.display;whiteSpace=wrap;fontSize=11;" parent="1" vertex="1">
                    <mxGeometry x="280.5" y="3880" width="100" height="60" as="geometry"/>
                </mxCell>
                <mxCell id="183" value="" style="edgeStyle=orthogonalEdgeStyle;html=1;fontSize=11;entryX=0;entryY=0.5;entryDx=0;entryDy=0;entryPerimeter=0;" parent="1" target="184" edge="1">
                    <mxGeometry relative="1" as="geometry">
                        <mxPoint x="869.5" y="3940" as="sourcePoint"/>
                        <mxPoint x="870" y="4030" as="targetPoint"/>
                        <Array as="points">
                            <mxPoint x="870" y="4030"/>
                            <mxPoint x="70" y="4030"/>
                            <mxPoint x="70" y="350"/>
                        </Array>
                    </mxGeometry>
                </mxCell>
                <mxCell id="228" value="" style="edgeStyle=orthogonalEdgeStyle;html=1;" edge="1" parent="1" source="148" target="226">
                    <mxGeometry relative="1" as="geometry"/>
                </mxCell>
                <mxCell id="148" value="break" style="whiteSpace=wrap;html=1;fontSize=11;strokeWidth=2;" parent="1" vertex="1">
                    <mxGeometry x="680" y="2820" width="120" height="60" as="geometry"/>
                </mxCell>
                <mxCell id="168" style="edgeStyle=orthogonalEdgeStyle;html=1;exitX=1;exitY=0.5;exitDx=0;exitDy=0;entryX=0;entryY=0.5;entryDx=0;entryDy=0;fontSize=11;entryPerimeter=0;" parent="1" source="150" target="225" edge="1">
                    <mxGeometry relative="1" as="geometry">
                        <mxPoint x="829" y="2580" as="targetPoint"/>
                    </mxGeometry>
                </mxCell>
                <mxCell id="150" value="break" style="whiteSpace=wrap;html=1;fontSize=11;strokeWidth=2;" parent="1" vertex="1">
                    <mxGeometry x="601" y="2550" width="120" height="60" as="geometry"/>
                </mxCell>
                <mxCell id="231" value="" style="edgeStyle=orthogonalEdgeStyle;html=1;" edge="1" parent="1" source="152" target="229">
                    <mxGeometry relative="1" as="geometry"/>
                </mxCell>
                <mxCell id="152" value="break" style="whiteSpace=wrap;html=1;fontSize=11;strokeWidth=2;" parent="1" vertex="1">
                    <mxGeometry x="640.5" y="1640" width="120" height="60" as="geometry"/>
                </mxCell>
                <mxCell id="160" style="edgeStyle=orthogonalEdgeStyle;html=1;fontSize=11;" parent="1" source="155" edge="1">
                    <mxGeometry relative="1" as="geometry">
                        <mxPoint x="840" y="1032.5000000000002" as="targetPoint"/>
                    </mxGeometry>
                </mxCell>
                <mxCell id="155" value="break" style="whiteSpace=wrap;html=1;fontSize=11;strokeWidth=2;" parent="1" vertex="1">
                    <mxGeometry x="530" y="1002.5" width="120" height="60" as="geometry"/>
                </mxCell>
                <mxCell id="159" style="edgeStyle=orthogonalEdgeStyle;html=1;fontSize=11;entryX=0.5;entryY=0;entryDx=0;entryDy=0;entryPerimeter=0;" parent="1" source="157" target="161" edge="1">
                    <mxGeometry relative="1" as="geometry">
                        <mxPoint x="970" y="970" as="targetPoint"/>
                    </mxGeometry>
                </mxCell>
                <mxCell id="157" value="break" style="whiteSpace=wrap;html=1;fontSize=11;strokeWidth=2;" parent="1" vertex="1">
                    <mxGeometry x="615" y="450" width="120" height="60" as="geometry"/>
                </mxCell>
                <mxCell id="162" style="edgeStyle=orthogonalEdgeStyle;html=1;exitX=0.5;exitY=1;exitDx=0;exitDy=0;exitPerimeter=0;fontSize=11;entryX=0.5;entryY=0;entryDx=0;entryDy=0;entryPerimeter=0;" parent="1" source="161" target="229" edge="1">
                    <mxGeometry relative="1" as="geometry">
                        <mxPoint x="869" y="1900" as="targetPoint"/>
                    </mxGeometry>
                </mxCell>
                <mxCell id="161" value="" style="verticalLabelPosition=bottom;verticalAlign=top;html=1;shape=mxgraph.flowchart.on-page_reference;fontSize=11;" parent="1" vertex="1">
                    <mxGeometry x="840" y="1002.5" width="60" height="60" as="geometry"/>
                </mxCell>
                <mxCell id="167" value="" style="edgeStyle=orthogonalEdgeStyle;html=1;fontSize=11;entryX=0.5;entryY=0;entryDx=0;entryDy=0;entryPerimeter=0;exitX=0.5;exitY=1;exitDx=0;exitDy=0;exitPerimeter=0;" parent="1" source="229" target="225" edge="1">
                    <mxGeometry relative="1" as="geometry">
                        <mxPoint x="869.0000000000005" y="1980" as="sourcePoint"/>
                        <mxPoint x="869" y="2540" as="targetPoint"/>
                    </mxGeometry>
                </mxCell>
                <mxCell id="174" value="" style="edgeStyle=orthogonalEdgeStyle;html=1;fontSize=11;" parent="1" edge="1">
                    <mxGeometry relative="1" as="geometry">
                        <mxPoint x="870" y="2880" as="sourcePoint"/>
                        <mxPoint x="870" y="3290" as="targetPoint"/>
                    </mxGeometry>
                </mxCell>
                <mxCell id="178" style="edgeStyle=orthogonalEdgeStyle;html=1;entryX=0.5;entryY=0;entryDx=0;entryDy=0;entryPerimeter=0;fontSize=11;exitX=0.5;exitY=1;exitDx=0;exitDy=0;exitPerimeter=0;" parent="1" source="223" edge="1">
                    <mxGeometry relative="1" as="geometry">
                        <mxPoint x="890" y="3380" as="sourcePoint"/>
                        <mxPoint x="869.5" y="3880" as="targetPoint"/>
                    </mxGeometry>
                </mxCell>
                <mxCell id="177" style="edgeStyle=orthogonalEdgeStyle;html=1;exitX=1;exitY=0.5;exitDx=0;exitDy=0;entryX=0;entryY=0.5;entryDx=0;entryDy=0;fontSize=11;" parent="1" source="175" edge="1">
                    <mxGeometry relative="1" as="geometry">
                        <mxPoint x="840" y="3320" as="targetPoint"/>
                    </mxGeometry>
                </mxCell>
                <mxCell id="175" value="break" style="whiteSpace=wrap;html=1;fontSize=11;strokeWidth=2;" parent="1" vertex="1">
                    <mxGeometry x="690" y="3290" width="120" height="60" as="geometry"/>
                </mxCell>
                <mxCell id="221" style="edgeStyle=orthogonalEdgeStyle;html=1;exitX=0.5;exitY=1;exitDx=0;exitDy=0;exitPerimeter=0;entryX=0.5;entryY=0;entryDx=0;entryDy=0;entryPerimeter=0;" edge="1" parent="1" source="184" target="3">
                    <mxGeometry relative="1" as="geometry"/>
                </mxCell>
                <mxCell id="233" value="" style="edgeStyle=orthogonalEdgeStyle;html=1;" edge="1" parent="1" source="184" target="232">
                    <mxGeometry relative="1" as="geometry"/>
                </mxCell>
                <mxCell id="184" value="1" style="strokeWidth=2;html=1;shape=mxgraph.flowchart.decision;whiteSpace=wrap;" vertex="1" parent="1">
                    <mxGeometry x="153.25" y="310" width="79.5" height="80" as="geometry"/>
                </mxCell>
                <mxCell id="188" value="i, 0, NUM_ALUNOS, 1" style="shape=hexagon;perimeter=hexagonPerimeter2;whiteSpace=wrap;html=1;fixedSize=1;" vertex="1" parent="1">
                    <mxGeometry x="299.5" y="992.5" width="120" height="80" as="geometry"/>
                </mxCell>
                <mxCell id="189" value="i, 0, NUM_PROVAS, 1" style="shape=hexagon;perimeter=hexagonPerimeter2;whiteSpace=wrap;html=1;fixedSize=1;" vertex="1" parent="1">
                    <mxGeometry x="299.5" y="1110" width="120" height="80" as="geometry"/>
                </mxCell>
                <mxCell id="240" value="" style="edgeStyle=orthogonalEdgeStyle;html=1;" edge="1" parent="1" source="190" target="20">
                    <mxGeometry relative="1" as="geometry"/>
                </mxCell>
                <mxCell id="190" value="i, 0, NUM_ALUNOS, 1" style="shape=hexagon;perimeter=hexagonPerimeter2;whiteSpace=wrap;html=1;fixedSize=1;" vertex="1" parent="1">
                    <mxGeometry x="352" y="440" width="120" height="80" as="geometry"/>
                </mxCell>
                <mxCell id="192" style="edgeStyle=orthogonalEdgeStyle;html=1;exitX=0;exitY=0.5;exitDx=0;exitDy=0;entryX=0;entryY=0.5;entryDx=0;entryDy=0;" edge="1" parent="1" source="237" target="191">
                    <mxGeometry relative="1" as="geometry">
                        <Array as="points">
                            <mxPoint x="330" y="820"/>
                            <mxPoint x="330" y="710"/>
                        </Array>
                    </mxGeometry>
                </mxCell>
                <mxCell id="238" style="edgeStyle=orthogonalEdgeStyle;html=1;exitX=0.5;exitY=1;exitDx=0;exitDy=0;entryX=0.5;entryY=0;entryDx=0;entryDy=0;" edge="1" parent="1" source="191" target="237">
                    <mxGeometry relative="1" as="geometry"/>
                </mxCell>
                <mxCell id="191" value="i, 0, NUM_PROVAS, 1" style="shape=hexagon;perimeter=hexagonPerimeter2;whiteSpace=wrap;html=1;fixedSize=1;" vertex="1" parent="1">
                    <mxGeometry x="352" y="670" width="120" height="80" as="geometry"/>
                </mxCell>
                <mxCell id="193" value="i, 0, NUM_ALUNOS, 1" style="shape=hexagon;perimeter=hexagonPerimeter2;whiteSpace=wrap;html=1;fixedSize=1;" vertex="1" parent="1">
                    <mxGeometry x="296" y="1400" width="120" height="80" as="geometry"/>
                </mxCell>
                <mxCell id="197" value="" style="edgeStyle=orthogonalEdgeStyle;html=1;" edge="1" parent="1" source="194" target="56">
                    <mxGeometry relative="1" as="geometry"/>
                </mxCell>
                <mxCell id="194" value="i, 0, NUM_PROVAS, 1" style="shape=hexagon;perimeter=hexagonPerimeter2;whiteSpace=wrap;html=1;fixedSize=1;" vertex="1" parent="1">
                    <mxGeometry x="295.5" y="1650" width="120" height="80" as="geometry"/>
                </mxCell>
                <mxCell id="201" value="" style="edgeStyle=orthogonalEdgeStyle;html=1;" edge="1" parent="1" source="198" target="67">
                    <mxGeometry relative="1" as="geometry"/>
                </mxCell>
                <mxCell id="202" value="" style="edgeStyle=orthogonalEdgeStyle;html=1;" edge="1" parent="1" source="198" target="72">
                    <mxGeometry relative="1" as="geometry"/>
                </mxCell>
                <mxCell id="251" value="" style="edgeStyle=orthogonalEdgeStyle;html=1;" edge="1" parent="1" source="198" target="67">
                    <mxGeometry relative="1" as="geometry"/>
                </mxCell>
                <mxCell id="198" value="i, 0, NUM_ALUNOS, 1" style="shape=hexagon;perimeter=hexagonPerimeter2;whiteSpace=wrap;html=1;fixedSize=1;" vertex="1" parent="1">
                    <mxGeometry x="466" y="1520" width="120" height="80" as="geometry"/>
                </mxCell>
                <mxCell id="207" value="" style="edgeStyle=orthogonalEdgeStyle;html=1;" edge="1" parent="1" source="203" target="102">
                    <mxGeometry relative="1" as="geometry"/>
                </mxCell>
                <mxCell id="271" value="" style="edgeStyle=orthogonalEdgeStyle;html=1;" edge="1" parent="1" source="203" target="263">
                    <mxGeometry relative="1" as="geometry"/>
                </mxCell>
                <mxCell id="203" value="i, 0, NUM_ALUNOS, 1" style="shape=hexagon;perimeter=hexagonPerimeter2;whiteSpace=wrap;html=1;fixedSize=1;" vertex="1" parent="1">
                    <mxGeometry x="430" y="2195" width="120" height="80" as="geometry"/>
                </mxCell>
                <mxCell id="205" value="" style="edgeStyle=orthogonalEdgeStyle;html=1;" edge="1" parent="1" source="204" target="99">
                    <mxGeometry relative="1" as="geometry"/>
                </mxCell>
                <mxCell id="264" style="edgeStyle=orthogonalEdgeStyle;html=1;exitX=1;exitY=0.5;exitDx=0;exitDy=0;entryX=0;entryY=0.5;entryDx=0;entryDy=0;" edge="1" parent="1" source="204" target="203">
                    <mxGeometry relative="1" as="geometry">
                        <Array as="points">
                            <mxPoint x="570" y="2440"/>
                            <mxPoint x="570" y="2590"/>
                            <mxPoint x="390" y="2590"/>
                            <mxPoint x="390" y="2235"/>
                        </Array>
                    </mxGeometry>
                </mxCell>
                <mxCell id="204" value="i, 0, NUM_PROVAS, 1" style="shape=hexagon;perimeter=hexagonPerimeter2;whiteSpace=wrap;html=1;fixedSize=1;" vertex="1" parent="1">
                    <mxGeometry x="432" y="2400" width="120" height="80" as="geometry"/>
                </mxCell>
                <mxCell id="214" value="" style="edgeStyle=orthogonalEdgeStyle;html=1;" edge="1" parent="1" source="210" target="85">
                    <mxGeometry relative="1" as="geometry"/>
                </mxCell>
                <mxCell id="210" value="i, 0, NUM_ALUNOS, 1" style="shape=hexagon;perimeter=hexagonPerimeter2;whiteSpace=wrap;html=1;fixedSize=1;" vertex="1" parent="1">
                    <mxGeometry x="330" y="2810" width="120" height="80" as="geometry"/>
                </mxCell>
                <mxCell id="219" value="" style="edgeStyle=orthogonalEdgeStyle;html=1;" edge="1" parent="1" source="211" target="129">
                    <mxGeometry relative="1" as="geometry"/>
                </mxCell>
                <mxCell id="211" value="i, 0, NUM_PROVAS, 1" style="shape=hexagon;perimeter=hexagonPerimeter2;whiteSpace=wrap;html=1;fixedSize=1;" vertex="1" parent="1">
                    <mxGeometry x="312" y="3420" width="120" height="80" as="geometry"/>
                </mxCell>
                <mxCell id="216" value="" style="edgeStyle=orthogonalEdgeStyle;html=1;" edge="1" parent="1" source="215" target="211">
                    <mxGeometry relative="1" as="geometry"/>
                </mxCell>
                <mxCell id="217" value="" style="edgeStyle=orthogonalEdgeStyle;html=1;" edge="1" parent="1" source="215" target="137">
                    <mxGeometry relative="1" as="geometry"/>
                </mxCell>
                <mxCell id="215" value="i, 0, NUM_ALUNOS, 1" style="shape=hexagon;perimeter=hexagonPerimeter2;whiteSpace=wrap;html=1;fixedSize=1;" vertex="1" parent="1">
                    <mxGeometry x="312" y="3280" width="120" height="80" as="geometry"/>
                </mxCell>
                <mxCell id="223" value="" style="verticalLabelPosition=bottom;verticalAlign=top;html=1;shape=mxgraph.flowchart.on-page_reference;fontSize=11;" vertex="1" parent="1">
                    <mxGeometry x="839.5" y="3290" width="59" height="60" as="geometry"/>
                </mxCell>
                <mxCell id="224" value="" style="verticalLabelPosition=bottom;verticalAlign=top;html=1;shape=mxgraph.flowchart.on-page_reference;" vertex="1" parent="1">
                    <mxGeometry x="840" y="3879" width="60" height="60" as="geometry"/>
                </mxCell>
                <mxCell id="227" style="edgeStyle=orthogonalEdgeStyle;html=1;entryX=0.5;entryY=0;entryDx=0;entryDy=0;entryPerimeter=0;" edge="1" parent="1" source="225" target="226">
                    <mxGeometry relative="1" as="geometry"/>
                </mxCell>
                <mxCell id="225" value="" style="verticalLabelPosition=bottom;verticalAlign=top;html=1;shape=mxgraph.flowchart.on-page_reference;fontSize=11;" vertex="1" parent="1">
                    <mxGeometry x="839.5" y="2550" width="59" height="60" as="geometry"/>
                </mxCell>
                <mxCell id="226" value="" style="verticalLabelPosition=bottom;verticalAlign=top;html=1;shape=mxgraph.flowchart.on-page_reference;fontSize=11;" vertex="1" parent="1">
                    <mxGeometry x="839.5" y="2820" width="59" height="60" as="geometry"/>
                </mxCell>
                <mxCell id="229" value="" style="verticalLabelPosition=bottom;verticalAlign=top;html=1;shape=mxgraph.flowchart.on-page_reference;fontSize=11;" vertex="1" parent="1">
                    <mxGeometry x="839.5" y="1640" width="59" height="60" as="geometry"/>
                </mxCell>
                <mxCell id="232" value="fim" style="strokeWidth=2;html=1;shape=mxgraph.flowchart.start_1;whiteSpace=wrap;" vertex="1" parent="1">
                    <mxGeometry x="322" y="320" width="100" height="60" as="geometry"/>
                </mxCell>
                <mxCell id="234" value="V" style="text;html=1;align=center;verticalAlign=middle;resizable=0;points=[];autosize=1;strokeColor=none;fillColor=none;" vertex="1" parent="1">
                    <mxGeometry x="470" y="450" width="30" height="30" as="geometry"/>
                </mxCell>
                <mxCell id="236" value="F" style="text;html=1;align=center;verticalAlign=middle;resizable=0;points=[];autosize=1;strokeColor=none;fillColor=none;" vertex="1" parent="1">
                    <mxGeometry x="419.5" y="520" width="30" height="30" as="geometry"/>
                </mxCell>
                <mxCell id="237" value="&lt;div style=&quot;background-color: rgb(31, 31, 31); line-height: 19px;&quot;&gt;notas[i][j]&lt;br&gt;&lt;/div&gt;" style="html=1;strokeWidth=2;shape=manualInput;whiteSpace=wrap;rounded=1;size=26;arcSize=11;" vertex="1" parent="1">
                    <mxGeometry x="362" y="790" width="100" height="60" as="geometry"/>
                </mxCell>
                <mxCell id="241" value="V" style="text;html=1;align=center;verticalAlign=middle;resizable=0;points=[];autosize=1;strokeColor=none;fillColor=none;" vertex="1" parent="1">
                    <mxGeometry x="470" y="680" width="30" height="30" as="geometry"/>
                </mxCell>
                <mxCell id="242" value="F" style="text;html=1;align=center;verticalAlign=middle;resizable=0;points=[];autosize=1;strokeColor=none;fillColor=none;" vertex="1" parent="1">
                    <mxGeometry x="417.5" y="750" width="30" height="30" as="geometry"/>
                </mxCell>
                <mxCell id="243" value="V" style="text;html=1;align=center;verticalAlign=middle;resizable=0;points=[];autosize=1;strokeColor=none;fillColor=none;" vertex="1" parent="1">
                    <mxGeometry x="416" y="1002.5" width="30" height="30" as="geometry"/>
                </mxCell>
                <mxCell id="244" value="F" style="text;html=1;align=center;verticalAlign=middle;resizable=0;points=[];autosize=1;strokeColor=none;fillColor=none;" vertex="1" parent="1">
                    <mxGeometry x="362.5" y="1072.5" width="30" height="30" as="geometry"/>
                </mxCell>
                <mxCell id="245" value="V" style="text;html=1;align=center;verticalAlign=middle;resizable=0;points=[];autosize=1;strokeColor=none;fillColor=none;" vertex="1" parent="1">
                    <mxGeometry x="415" y="1410" width="30" height="30" as="geometry"/>
                </mxCell>
                <mxCell id="246" value="V" style="text;html=1;align=center;verticalAlign=middle;resizable=0;points=[];autosize=1;strokeColor=none;fillColor=none;" vertex="1" parent="1">
                    <mxGeometry x="411" y="1120" width="30" height="30" as="geometry"/>
                </mxCell>
                <mxCell id="247" value="F" style="text;html=1;align=center;verticalAlign=middle;resizable=0;points=[];autosize=1;strokeColor=none;fillColor=none;" vertex="1" parent="1">
                    <mxGeometry x="362" y="1190" width="30" height="30" as="geometry"/>
                </mxCell>
                <mxCell id="248" value="F" style="text;html=1;align=center;verticalAlign=middle;resizable=0;points=[];autosize=1;strokeColor=none;fillColor=none;" vertex="1" parent="1">
                    <mxGeometry x="355" y="1480" width="30" height="30" as="geometry"/>
                </mxCell>
                <mxCell id="252" value="F" style="text;html=1;align=center;verticalAlign=middle;resizable=0;points=[];autosize=1;strokeColor=none;fillColor=none;" vertex="1" parent="1">
                    <mxGeometry x="521" y="1600" width="30" height="30" as="geometry"/>
                </mxCell>
                <mxCell id="253" value="V" style="text;html=1;align=center;verticalAlign=middle;resizable=0;points=[];autosize=1;strokeColor=none;fillColor=none;" vertex="1" parent="1">
                    <mxGeometry x="585" y="1530" width="30" height="30" as="geometry"/>
                </mxCell>
                <mxCell id="255" value="F" style="text;html=1;align=center;verticalAlign=middle;resizable=0;points=[];autosize=1;strokeColor=none;fillColor=none;" vertex="1" parent="1">
                    <mxGeometry x="450" y="1800" width="30" height="30" as="geometry"/>
                </mxCell>
                <mxCell id="256" value="V" style="text;html=1;align=center;verticalAlign=middle;resizable=0;points=[];autosize=1;strokeColor=none;fillColor=none;" vertex="1" parent="1">
                    <mxGeometry x="375" y="1838" width="30" height="30" as="geometry"/>
                </mxCell>
                <mxCell id="259" value="F" style="text;html=1;align=center;verticalAlign=middle;resizable=0;points=[];autosize=1;strokeColor=none;fillColor=none;fontSize=11;" vertex="1" parent="1">
                    <mxGeometry x="488" y="2920" width="30" height="30" as="geometry"/>
                </mxCell>
                <mxCell id="260" value="V" style="text;html=1;align=center;verticalAlign=middle;resizable=0;points=[];autosize=1;strokeColor=none;fillColor=none;fontSize=11;" vertex="1" parent="1">
                    <mxGeometry x="480" y="2960" width="30" height="30" as="geometry"/>
                </mxCell>
                <mxCell id="272" style="edgeStyle=orthogonalEdgeStyle;html=1;entryX=0.5;entryY=0;entryDx=0;entryDy=0;" edge="1" parent="1" source="263" target="150">
                    <mxGeometry relative="1" as="geometry"/>
                </mxCell>
                <mxCell id="263" value="medias[i]" style="strokeWidth=2;html=1;shape=mxgraph.flowchart.display;whiteSpace=wrap;fontSize=11;" vertex="1" parent="1">
                    <mxGeometry x="610" y="2205" width="100" height="60" as="geometry"/>
                </mxCell>
                <mxCell id="266" value="V" style="text;html=1;align=center;verticalAlign=middle;resizable=0;points=[];autosize=1;strokeColor=none;fillColor=none;fontSize=11;" vertex="1" parent="1">
                    <mxGeometry x="555" y="2200" width="30" height="30" as="geometry"/>
                </mxCell>
                <mxCell id="267" value="V" style="text;html=1;align=center;verticalAlign=middle;resizable=0;points=[];autosize=1;strokeColor=none;fillColor=none;fontSize=11;" vertex="1" parent="1">
                    <mxGeometry x="555" y="2410" width="30" height="30" as="geometry"/>
                </mxCell>
                <mxCell id="268" value="F" style="text;html=1;align=center;verticalAlign=middle;resizable=0;points=[];autosize=1;strokeColor=none;fillColor=none;fontSize=11;" vertex="1" parent="1">
                    <mxGeometry x="486" y="2280" width="30" height="30" as="geometry"/>
                </mxCell>
                <mxCell id="269" value="F" style="text;html=1;align=center;verticalAlign=middle;resizable=0;points=[];autosize=1;strokeColor=none;fillColor=none;fontSize=11;" vertex="1" parent="1">
                    <mxGeometry x="487" y="2480" width="30" height="30" as="geometry"/>
                </mxCell>
                <mxCell id="273" value="F" style="text;html=1;align=center;verticalAlign=middle;resizable=0;points=[];autosize=1;strokeColor=none;fillColor=none;fontSize=11;" vertex="1" parent="1">
                    <mxGeometry x="380.5" y="2890" width="30" height="30" as="geometry"/>
                </mxCell>
                <mxCell id="274" value="F" style="text;html=1;align=center;verticalAlign=middle;resizable=0;points=[];autosize=1;strokeColor=none;fillColor=none;fontSize=11;" vertex="1" parent="1">
                    <mxGeometry x="441" y="2960" width="30" height="30" as="geometry"/>
                </mxCell>
                <mxCell id="275" value="V" style="text;html=1;align=center;verticalAlign=middle;resizable=0;points=[];autosize=1;strokeColor=none;fillColor=none;fontSize=11;" vertex="1" parent="1">
                    <mxGeometry x="444.5" y="2820" width="30" height="30" as="geometry"/>
                </mxCell>
                <mxCell id="276" value="V" style="text;html=1;align=center;verticalAlign=middle;resizable=0;points=[];autosize=1;strokeColor=none;fillColor=none;fontSize=11;" vertex="1" parent="1">
                    <mxGeometry x="385" y="3030" width="30" height="30" as="geometry"/>
                </mxCell>
                <mxCell id="278" value="" style="verticalLabelPosition=bottom;verticalAlign=top;html=1;shape=mxgraph.flowchart.on-page_reference;" vertex="1" parent="1">
                    <mxGeometry x="380.5" y="3140" width="30" height="30" as="geometry"/>
                </mxCell>
            </root>
        </mxGraphModel>
    </diagram>
</mxfile>